<svg width="198" height="199" viewBox="0 0 198 199" fill="none" xmlns="http://www.w3.org/2000/svg">
<path d="M99 198.5C153.676 198.5 198 154.176 198 99.5C198 44.8238 153.676 0.5 99 0.5C44.3238 0.5 0 44.8238 0 99.5C0 154.176 44.3238 198.5 99 198.5Z" fill="#1A1A1A"/>
<path d="M131.208 117.716C138.864 122.138 148.5 127.352 149.886 137.45C159.984 134.744 174.966 131.576 171.138 122.6C166.386 102.008 155.364 83.726 147.246 64.256C146.652 62.87 146.19 61.286 145.926 59.834C144.936 54.62 146.85 49.67 147.312 44.324C145.332 44.588 136.686 44.588 131.802 50.66C131.67 50.858 130.68 44.654 133.98 38.054C128.502 36.404 85.7341 55.082 71.4121 92.108C71.0821 83.594 74.5141 69.008 86.2621 52.772C104.412 27.626 133.914 24.326 152.988 28.748C149.688 27.296 149.226 26.372 141.636 23.732C137.214 22.148 130.746 20.894 127.842 20.894C75.7021 20.696 41.9101 51.518 39.1381 105.836C37.0261 147.152 81.7741 174.872 128.766 175.004C145.002 175.07 155.694 167.744 164.472 161.078C116.49 154.214 94.1821 138.506 116.358 96.596C113.916 101.282 117.018 109.532 131.208 117.716ZM140.316 72.44C140.382 72.506 140.382 72.572 140.448 72.638C140.448 72.572 140.514 72.572 140.514 72.506C144.672 81.02 148.5 88.808 152.328 96.596C150.942 96.068 149.622 95.474 148.368 94.814C138.732 89.666 134.706 79.568 140.316 72.44Z" fill="url(#paint0_linear_953_11412)"/>
<path d="M110.946 20.9597C104.016 21.8177 97.3501 23.5997 91.0801 26.1737C82.5001 21.4877 73.2601 17.9897 63.4921 15.8777C68.1781 13.5677 79.3981 12.5117 84.8761 12.5117C96.4921 14.2937 100.914 15.6137 110.946 20.9597Z" fill="url(#paint1_linear_953_11412)"/>
<path d="M87.4499 27.7578C87.1859 27.8898 86.9879 27.9558 86.7239 28.0878C81.4439 30.6618 76.5599 33.7638 72.0059 37.3278C63.2939 34.9518 54.1199 33.7638 44.6159 33.7638C42.5039 33.7638 40.3919 33.8298 38.2799 33.9618C44.5499 27.6258 61.5119 20.7618 69.2999 20.3658C75.7019 22.3458 78.8039 23.2038 87.4499 27.7578Z" fill="url(#paint2_linear_953_11412)"/>
<path d="M68.706 40.1657C68.244 40.5617 67.782 40.9577 67.386 41.3537C66.924 41.8157 66.462 42.2117 66 42.6737C63.228 45.3797 60.654 48.3497 58.278 51.4517C43.89 53.1017 30.36 57.6557 18.348 64.4537C22.308 54.6197 39.138 38.6477 46.596 37.2617C49.83 36.9977 60.984 38.3177 68.706 40.1657Z" fill="url(#paint3_linear_953_11412)"/>
<path d="M56.232 54.2898C55.638 55.2138 54.978 56.1378 54.45 57.0618C54.054 57.7218 53.658 58.3158 53.262 58.9758C51.282 62.3418 49.566 65.8398 48.114 69.4698C34.188 75.4758 21.846 84.3858 11.748 95.4738C12.078 85.7718 23.694 64.9158 29.04 62.9358C29.04 63.0018 42.108 56.2038 56.232 54.2898Z" fill="url(#paint4_linear_953_11412)"/>
<path d="M46.5302 73.8259C46.3322 74.4859 46.1342 75.0799 45.9362 75.7399C45.7382 76.3999 45.5402 77.1259 45.3422 77.7859C44.5502 80.7559 43.8902 83.8579 43.4282 86.9599C31.4822 98.5099 22.2422 112.832 16.7642 128.936C13.5302 119.498 12.8702 106.166 19.9322 92.7019C19.9982 92.5699 36.0362 78.7759 46.5302 73.8259Z" fill="url(#paint5_linear_953_11412)"/>
<path d="M34.5844 151.772C34.5844 154.544 34.7164 157.316 34.9144 160.088C27.9844 152.234 22.5064 133.622 23.3644 123.656C28.5124 111.05 36.5644 99.1698 42.7024 92.7018C42.6364 93.2958 42.6364 93.8898 42.5704 94.4838C42.5044 95.8038 42.4384 97.1238 42.4384 98.5098C42.4384 102.338 42.7024 106.034 43.2304 109.73C37.6864 122.6 34.5844 136.79 34.5844 151.772Z" fill="url(#paint6_linear_953_11412)"/>
<path d="M64.4159 182.33C54.6479 177.644 44.0879 166.82 38.2799 150.32C38.2799 150.32 39.4679 124.976 44.2199 114.944C44.2199 115.076 44.2859 115.142 44.2859 115.274C44.5499 116.594 44.8799 117.848 45.2099 119.102C47.7179 128.276 51.8099 136.724 57.2219 144.182C57.2879 157.646 59.7959 170.516 64.4159 182.33Z" fill="url(#paint7_linear_953_11412)"/>
<path d="M98.274 191.042C87.318 190.382 75.57 183.122 66.066 175.664C62.7 169.922 60.588 156.194 59.73 147.416C59.862 147.548 59.994 147.746 60.126 147.878C60.852 148.736 61.578 149.594 62.37 150.452C68.046 156.854 74.778 162.332 82.302 166.556C82.566 166.688 82.764 166.82 83.028 166.952C86.988 175.73 92.136 183.782 98.274 191.042Z" fill="url(#paint8_linear_953_11412)"/>
<path d="M129.492 187.742C123.09 189.788 114.246 192.56 96.7563 185.3C91.0803 178.568 90.8823 177.05 86.9883 169.064C94.6443 172.76 103.026 175.202 111.804 176.192C112.596 176.258 113.388 176.39 114.18 176.456C118.932 180.68 124.014 184.442 129.492 187.742Z" fill="url(#paint9_linear_953_11412)"/>
<path d="M150.546 26.2398C148.896 25.5798 147.246 24.9198 145.53 24.3918C145.002 24.1938 144.474 24.0618 143.946 23.8638C136.752 21.6198 123.552 20.4318 115.632 20.3658C103.554 14.2278 95.7 10.3338 81.51 9.21182C94.644 6.90182 104.808 8.28782 110.352 9.01382C122.232 10.4658 135.63 14.9538 150.546 26.2398Z" fill="url(#paint10_linear_953_11412)"/>
<path d="M163.02 164.312C160.908 168.14 143.814 182.132 128.568 184.046C123.618 181.142 123.288 180.416 118.998 176.654C119.592 176.654 120.186 176.654 120.78 176.654C123.288 176.654 125.73 176.522 128.172 176.324C128.37 176.324 128.634 176.258 128.832 176.258C134.178 175.73 139.326 174.608 144.276 173.09C144.738 172.958 145.134 172.826 145.596 172.694C147.378 172.1 149.094 171.44 150.81 170.714C155.034 168.932 159.126 166.82 163.02 164.312Z" fill="url(#paint11_linear_953_11412)"/>
<defs>
<linearGradient id="paint0_linear_953_11412" x1="-67.8939" y1="231.251" x2="370.573" y2="-79.9898" gradientUnits="userSpaceOnUse">
<stop offset="0.1856" stop-color="#19EBCE"/>
<stop offset="0.2654" stop-color="#21DCD0"/>
<stop offset="0.4196" stop-color="#36B4D4"/>
<stop offset="0.6329" stop-color="#5873DB"/>
<stop offset="0.8947" stop-color="#871BE5"/>
<stop offset="0.9103" stop-color="#8A15E6"/>
</linearGradient>
<linearGradient id="paint1_linear_953_11412" x1="15.7469" y1="189.619" x2="94.9478" y2="-0.0942858" gradientUnits="userSpaceOnUse">
<stop offset="0.1856" stop-color="#19EBCE"/>
<stop offset="0.2654" stop-color="#21DCD0"/>
<stop offset="0.4196" stop-color="#36B4D4"/>
<stop offset="0.6329" stop-color="#5873DB"/>
<stop offset="0.8947" stop-color="#871BE5"/>
<stop offset="0.9103" stop-color="#8A15E6"/>
</linearGradient>
<linearGradient id="paint2_linear_953_11412" x1="-0.569613" y1="182.808" x2="78.6312" y2="-6.90594" gradientUnits="userSpaceOnUse">
<stop offset="0.1856" stop-color="#19EBCE"/>
<stop offset="0.2654" stop-color="#21DCD0"/>
<stop offset="0.4196" stop-color="#36B4D4"/>
<stop offset="0.6329" stop-color="#5873DB"/>
<stop offset="0.8947" stop-color="#871BE5"/>
<stop offset="0.9103" stop-color="#8A15E6"/>
</linearGradient>
<linearGradient id="paint3_linear_953_11412" x1="-9.41231" y1="179.116" x2="69.7886" y2="-10.5976" gradientUnits="userSpaceOnUse">
<stop offset="0.1856" stop-color="#19EBCE"/>
<stop offset="0.2654" stop-color="#21DCD0"/>
<stop offset="0.4196" stop-color="#36B4D4"/>
<stop offset="0.6329" stop-color="#5873DB"/>
<stop offset="0.8947" stop-color="#871BE5"/>
<stop offset="0.9103" stop-color="#8A15E6"/>
</linearGradient>
<linearGradient id="paint4_linear_953_11412" x1="-10.2321" y1="178.774" x2="68.9688" y2="-10.9398" gradientUnits="userSpaceOnUse">
<stop offset="0.1856" stop-color="#19EBCE"/>
<stop offset="0.2654" stop-color="#21DCD0"/>
<stop offset="0.4196" stop-color="#36B4D4"/>
<stop offset="0.6329" stop-color="#5873DB"/>
<stop offset="0.8947" stop-color="#871BE5"/>
<stop offset="0.9103" stop-color="#8A15E6"/>
</linearGradient>
<linearGradient id="paint5_linear_953_11412" x1="-6.24987" y1="180.436" x2="72.9509" y2="-9.27737" gradientUnits="userSpaceOnUse">
<stop offset="0.1856" stop-color="#19EBCE"/>
<stop offset="0.2654" stop-color="#21DCD0"/>
<stop offset="0.4196" stop-color="#36B4D4"/>
<stop offset="0.6329" stop-color="#5873DB"/>
<stop offset="0.8947" stop-color="#871BE5"/>
<stop offset="0.9103" stop-color="#8A15E6"/>
</linearGradient>
<linearGradient id="paint6_linear_953_11412" x1="10.1754" y1="187.293" x2="89.3762" y2="-2.42025" gradientUnits="userSpaceOnUse">
<stop offset="0.1856" stop-color="#19EBCE"/>
<stop offset="0.2654" stop-color="#21DCD0"/>
<stop offset="0.4196" stop-color="#36B4D4"/>
<stop offset="0.6329" stop-color="#5873DB"/>
<stop offset="0.8947" stop-color="#871BE5"/>
<stop offset="0.9103" stop-color="#8A15E6"/>
</linearGradient>
<linearGradient id="paint7_linear_953_11412" x1="34.0129" y1="197.245" x2="113.214" y2="7.53155" gradientUnits="userSpaceOnUse">
<stop offset="0.1856" stop-color="#19EBCE"/>
<stop offset="0.2654" stop-color="#21DCD0"/>
<stop offset="0.4196" stop-color="#36B4D4"/>
<stop offset="0.6329" stop-color="#5873DB"/>
<stop offset="0.8947" stop-color="#871BE5"/>
<stop offset="0.9103" stop-color="#8A15E6"/>
</linearGradient>
<linearGradient id="paint8_linear_953_11412" x1="62.3646" y1="209.081" x2="141.565" y2="19.3675" gradientUnits="userSpaceOnUse">
<stop offset="0.1856" stop-color="#19EBCE"/>
<stop offset="0.2654" stop-color="#21DCD0"/>
<stop offset="0.4196" stop-color="#36B4D4"/>
<stop offset="0.6329" stop-color="#5873DB"/>
<stop offset="0.8947" stop-color="#871BE5"/>
<stop offset="0.9103" stop-color="#8A15E6"/>
</linearGradient>
<linearGradient id="paint9_linear_953_11412" x1="90.5249" y1="220.837" x2="169.726" y2="31.1236" gradientUnits="userSpaceOnUse">
<stop offset="0.1856" stop-color="#19EBCE"/>
<stop offset="0.2654" stop-color="#21DCD0"/>
<stop offset="0.4196" stop-color="#36B4D4"/>
<stop offset="0.6329" stop-color="#5873DB"/>
<stop offset="0.8947" stop-color="#871BE5"/>
<stop offset="0.9103" stop-color="#8A15E6"/>
</linearGradient>
<linearGradient id="paint10_linear_953_11412" x1="40.0337" y1="199.759" x2="119.235" y2="10.045" gradientUnits="userSpaceOnUse">
<stop offset="0.1856" stop-color="#19EBCE"/>
<stop offset="0.2654" stop-color="#21DCD0"/>
<stop offset="0.4196" stop-color="#36B4D4"/>
<stop offset="0.6329" stop-color="#5873DB"/>
<stop offset="0.8947" stop-color="#871BE5"/>
<stop offset="0.9103" stop-color="#8A15E6"/>
</linearGradient>
<linearGradient id="paint11_linear_953_11412" x1="115.615" y1="231.312" x2="194.816" y2="41.598" gradientUnits="userSpaceOnUse">
<stop offset="0.1856" stop-color="#19EBCE"/>
<stop offset="0.2654" stop-color="#21DCD0"/>
<stop offset="0.4196" stop-color="#36B4D4"/>
<stop offset="0.6329" stop-color="#5873DB"/>
<stop offset="0.8947" stop-color="#871BE5"/>
<stop offset="0.9103" stop-color="#8A15E6"/>
</linearGradient>
</defs>
</svg>
